{"title":"Igor - Espanhol - [jcmoc]","uid":13235883,"size":300169300,"categoryP":"video","categoryS":"movies","magnet":"?xt=urn:btih:08199485a4bebc08c45ff98829b933b533651f3b&amp;dn=Igor+-+Espanhol+-+%5Bjcmoc%5D&amp;tr=udp%3A%2F%2Ftracker.leechers-paradise.org%3A6969&amp;tr=udp%3A%2F%2Fzer0day.ch%3A1337&amp;tr=udp%3A%2F%2Fopen.demonii.com%3A1337&amp;tr=udp%3A%2F%2Ftracker.coppersurfer.tk%3A6969&amp;tr=udp%3A%2F%2Fexodus.desync.com%3A6969","seeders":0,"leechers":0,"uploader":"jcmoc","files":2,"time":1453004797,"description":"General\r\nFormat                         : MPEG-4\r\nFormat profile                 : Base Media / Version 2\r\nCodec ID                       : mp42\r\nFile size                      : 286 MiB\r\nDuration                       : 1h 26mn\r\nOverall bit rate mode          : Variable\r\nOverall bit rate               : 462 Kbps\r\nEncoded date                   : UTC 2014-01-26 09:13:11\r\nTagged date                    : UTC 2014-01-26 09:13:11\r\ngsst                           : 0\r\ngstd                           : 5194093\r\ngssd                           : B0AFC20B4\r\ngshh                           : r4---sn-bg07dner.googlevideo.com\r\n\r\nVideo\r\nID                             : 1\r\nFormat                         : AVC\r\nFormat/Info                    : Advanced Video Codec\r\nFormat profile                 :   \r\nFormat settings, CABAC         : No\r\nFormat settings, ReFrames      : 1 frame\r\nCodec ID                       : avc1\r\nCodec ID/Info                  : Advanced Video Coding\r\nDuration                       : 1h 26mn\r\nBit rate                       : 364 Kbps\r\nMaximum bit rate               : 1 907 Kbps\r\nWidth                          : 640 pixels\r\nHeight                         : 350 pixels\r\nDisplay aspect ratio           : 1.85:1\r\nFrame rate mode                : Constant\r\nFrame rate                     : 23.976 fps\r\nColor space                    : YUV\r\nChroma subsampling             : 4:2:0\r\nBit depth                      : 8 bits\r\nScan type                      : Progressive\r\nBits/(Pixel*Frame)             : 0.068\r\nStream size                    : 225 MiB (79%)\r\nTagged date                    : UTC 2014-01-26 09:15:41\r\n\r\nAudio\r\nID                             : 2\r\nFormat                         : AAC\r\nFormat/Info                    : Advanced Audio Codec\r\nFormat profile                 : LC\r\nCodec ID                       : 40\r\nDuration                       : 1h 26mn\r\nBit rate mode                  : Variable\r\nBit rate                       : 96.0 Kbps\r\nMaximum bit rate               : 103 Kbps\r\nChannel count                  : 2 channels\r\nChannel positions              : Front: L R\r\nSampling rate                  : 44.1 KHz\r\nCompression mode               : Lossy\r\nStream size                    : 59.4 MiB (21%)\r\nTitle                          : IsoMedia File Produced by Google, 5-11-2011\r\nEncoded date                   : UTC 2014-01-26 09:14:31\r\nTagged date                    : UTC 2014-01-26 09:15:41","torrent":{"xt":"urn:btih:08199485a4bebc08c45ff98829b933b533651f3b","amp;dn":"Igor+-+Espanhol+-+%5Bjcmoc%5D","amp;tr":["udp%3A%2F%2Ftracker.leechers-paradise.org%3A6969","udp%3A%2F%2Fzer0day.ch%3A1337","udp%3A%2F%2Fopen.demonii.com%3A1337","udp%3A%2F%2Ftracker.coppersurfer.tk%3A6969","udp%3A%2F%2Fexodus.desync.com%3A6969"],"infoHash":"08199485a4bebc08c45ff98829b933b533651f3b","infoHashBuffer":{"type":"Buffer","data":[8,25,148,133,164,190,188,8,196,95,249,136,41,185,51,181,51,101,31,59]},"announce":[],"urlList":[]}}